<svg version="1.1" viewBox="0 0 640 400" xmlns="http://www.w3.org/2000/svg" xmlns:xlink="http://www.w3.org/1999/xlink" xmlns:svgjs="http://svgjs.dev/svgjs" matcher="0.8674248378332536"><g viewBox="0 0 640 400" matcher="0.8674248378332536"><g matcher="0.8674248378332536"><g matcher="0.8674248378332536"><g matcher="0.8674248378332536"><svg viewBox="0 0 640 400" data-background-color="#ffffff" preserveAspectRatio="xMidYMid meet" height="400" width="640" xmlns="http://www.w3.org/2000/svg" xmlns:xlink="http://www.w3.org/1999/xlink"><rect width="640" height="400" x="0" y="0" opacity="1" fill="#ffffff" data-fill-palette-color="background" id="background"></rect><g id="tight-bounds" transform="matrix(1,0,0,1,122.24000000000001,111.26406056058879)"><svg viewBox="0 0 395.52 177.47187887882242" height="177.47187887882242" width="395.52"><g><svg viewBox="0 0 714.6239306188086 320.6554704153752" height="177.47187887882242" width="395.52"><g transform="matrix(1,0,0,1,0,99.58878975050528)"><svg viewBox="0 0 395.52 121.47789091436462" height="121.47789091436462" width="395.52"><g id="textblocktransform"><svg viewBox="0 0 395.52 121.47789091436462" height="121.47789091436462" width="395.52" id="textblock"><g><svg viewBox="0 0 395.52 87.62547237312839" height="87.62547237312839" width="395.52"><g transform="matrix(1,0,0,1,0,0)"><svg width="395.52" viewBox="2.200000047683716 -40.15999984741211 184.22999572753906 40.81999969482422" height="87.62547237312839" data-palette-color="#6b7280"><g class="wordmark-text-0" data-fill-palette-color="primary" id="text-0"><path d="M19.24-33.96L20.61-34.13Q20.85-34.13 20.85-33.59L20.85-33.59 21.48-28.39Q21.58-27.91 21.58-27.77 21.58-27.64 21.2-27.64 20.83-27.64 20.73-27.73 20.63-27.83 20.53-28.06 20.43-28.3 20.3-28.59 20.17-28.88 20.02-29.17L20.02-29.17Q19.51-30.3 18.41-31.4L18.41-31.4Q15.72-33.98 12.35-33.98L12.35-33.98Q10.33-33.98 8.52-32.67 6.71-31.35 6.71-29.55 6.71-27.76 7.39-26.44 8.06-25.12 9.16-24 10.25-22.88 11.67-21.85 13.09-20.83 14.55-19.78L14.55-19.78Q18.43-17.07 20.07-15.14L20.07-15.14Q22.63-12.16 22.85-8.45L22.85-8.45Q22.85-4.3 19.67-1.82 16.48 0.66 12.26 0.66L12.26 0.66Q9.55 0.66 7.95 0.11 6.35-0.44 5.74-0.68 5.13-0.93 4.85-0.93 4.57-0.93 4.49-0.9L4.49-0.9 3.3-0.66Q2.98-0.66 2.91-1.17L2.91-1.17Q2.2-7.23 2.2-7.6 2.2-7.98 2.26-8.12 2.32-8.25 2.59-8.25L2.59-8.25Q3.27-8.25 3.83-6.3L3.83-6.3Q6.4-0.81 12.35-0.81L12.35-0.81Q15.09-0.81 17.03-2.47 18.97-4.13 18.97-6.79L18.97-6.79Q18.97-11.04 13.89-14.7L13.89-14.7Q12.45-15.72 9.74-17.55 7.03-19.38 5.42-21.22L5.42-21.22Q2.91-24.05 2.91-27.53 2.91-31.01 5.68-33.23 8.45-35.45 12.04-35.45L12.04-35.45Q13.89-35.45 16.13-34.81 18.36-34.18 19.24-33.96L19.24-33.96ZM33.37-39.58L33.37-18.9Q33.37-18.31 33.54-18.31 33.71-18.31 33.79-18.4 33.86-18.48 34.81-19.53L34.81-19.53Q37.57-22.61 40.4-22.61L40.4-22.61Q44.11-22.61 45.85-20.95L45.85-20.95Q47.97-18.85 47.97-13.89L47.97-13.89 47.97-3.71Q47.97-1.32 50.61-0.93L50.61-0.93Q51.76-0.78 51.76-0.42 51.76-0.05 51.51 0L51.51 0 40.62 0Q40.38-0.05 40.38-0.34L40.38-0.34Q40.38-0.78 41.53-0.93L41.53-0.93Q44.16-1.32 44.16-3.71L44.16-3.71 44.16-13.65Q44.16-17.24 43.65-18.31L43.65-18.31Q42.67-20.46 39.57-20.46L39.57-20.46Q37.67-20.46 35.52-18.84 33.37-17.21 33.37-15.26L33.37-15.26 33.37-3.71Q33.37-1.32 36.01-0.93L36.01-0.93Q37.16-0.78 37.16-0.42 37.16-0.05 36.91 0L36.91 0 26.02 0Q25.78-0.05 25.78-0.34L25.78-0.34Q25.78-0.78 26.93-0.93L26.93-0.93Q29.56-1.32 29.56-3.71L29.56-3.71 29.56-34.16Q29.56-35.18 28.44-35.57L28.44-35.57Q27.95-35.74 27.39-35.85 26.83-35.96 26.5-36.06 26.17-36.16 26.08-36.24 26-36.33 26-36.61 26-36.89 26.36-37.08L26.36-37.08 32.59-40.01Q32.88-40.16 32.96-40.16L32.96-40.16Q33.37-40.16 33.37-39.58L33.37-39.58ZM72.29-12.87L58.12-12.87Q57.71-12.87 57.71-11.08L57.71-11.08Q57.71-7.3 59.96-4.74 62.2-2.17 65.53-2.17 68.87-2.17 71.94-5.05L71.94-5.05Q71.99-5.1 72.07-5.1L72.07-5.1 72.19-5.1Q72.33-5.1 72.47-4.87 72.6-4.64 72.72-4.57L72.72-4.57Q69.89-1.12 66.06 0.2L66.06 0.2Q64.74 0.66 63.08 0.66 61.42 0.66 59.71-0.26 58-1.17 56.78-2.66L56.78-2.66Q54.19-5.76 54.19-10.39 54.19-15.01 57.01-18.82 59.83-22.63 64.77-22.63L64.77-22.63Q68.31-22.63 70.55-19.47 72.8-16.31 72.8-13.92L72.8-13.92Q72.8-12.87 72.29-12.87L72.29-12.87ZM58.39-15.5L58.39-15.21Q58.39-14.75 58.83-14.75L58.83-14.75 68.04-14.75Q68.67-14.75 68.67-15.5L68.67-15.5Q68.67-17.26 67.1-19.1 65.52-20.95 63.64-20.95L63.64-20.95Q61.81-20.95 60.31-19.29 58.81-17.63 58.39-15.5L58.39-15.5ZM85.91-0.93L85.91-0.93Q87.05-0.78 87.05-0.34L87.05-0.34Q87.05-0.05 86.81 0L86.81 0 75.92 0Q75.68-0.05 75.68-0.34L75.68-0.34Q75.68-0.78 76.82-0.93L76.82-0.93Q79.46-1.32 79.46-3.71L79.46-3.71 79.46-34.16Q79.46-35.18 78.34-35.57L78.34-35.57Q77.85-35.74 77.29-35.85 76.73-35.96 76.4-36.06 76.07-36.16 75.98-36.24 75.9-36.33 75.9-36.61 75.9-36.89 76.26-37.08L76.26-37.08 82.49-40.01Q82.78-40.16 82.85-40.16L82.85-40.16Q83.27-40.16 83.27-39.58L83.27-39.58 83.27-3.71Q83.27-1.32 85.91-0.93ZM102.9-18.77L95.55-18.77Q95.4-18.77 95.4-18.55L95.4-18.55 95.4-5.08Q95.4-3.61 96.05-2.78 96.69-1.95 97.7-1.95 98.7-1.95 99.44-2.28 100.19-2.61 100.73-3 101.28-3.39 101.72-3.72 102.16-4.05 102.5-4.05 102.85-4.05 102.85-3.88L102.85-3.88Q102.85-3.3 102.72-3.13L102.72-3.13Q99.79 0.66 97.07 0.66 94.35 0.66 92.97-1.06 91.59-2.78 91.59-5.18L91.59-5.18 91.59-18.77 89.76-18.77Q89.08-18.77 89.04-19.21 89-19.65 89.17-19.78L89.17-19.78Q90.47-20.61 92.74-22.75L92.74-22.75Q92.98-23.02 93.4-23.56 93.81-24.1 94.61-25.02 95.4-25.95 95.82-25.95 96.23-25.95 96.23-25.61L96.23-25.61Q96.23-25.56 95.4-22.41L95.4-22.41Q95.4-21.97 95.79-21.95L95.79-21.95 102.02-21.95Q103.09-21.95 103.09-18.92L103.09-18.92Q103.09-18.77 102.9-18.77L102.9-18.77ZM139.27-30.18L139.27-4.42Q139.27-1.12 143.84-0.98L143.84-0.98Q144.03-0.98 144.03-0.78L144.03-0.78 144.03-0.2Q144.03 0 143.84 0L143.84 0 128.31 0Q128.11 0 128.11-0.2L128.11-0.2 128.11-0.78Q128.11-0.98 129.33-0.98 130.55-0.98 132.12-1.51L132.12-1.51Q134.51-2.29 134.51-4.15L134.51-4.15 134.51-15.8Q134.51-16.04 134.44-16.11 134.36-16.19 134.12-16.19L134.12-16.19 114.88-16.19Q114.64-16.19 114.56-16.11 114.49-16.04 114.49-15.8L114.49-15.8 114.49-3.91Q114.49-0.98 118.81-0.98L118.81-0.98Q119.01-0.98 119.01-0.78L119.01-0.78 119.01-0.2Q119.01 0 118.84 0L118.84 0 105.36 0Q105.16 0 105.16-0.2L105.16-0.2 105.16-0.78Q105.16-0.98 105.65-0.98L105.65-0.98Q109.73-0.98 109.73-4.47L109.73-4.47 109.73-30.52Q109.73-33.37 106.34-33.54L106.34-33.54Q105.82-33.57 105.82-33.76L105.82-33.76 105.82-34.23Q105.82-34.42 105.99-34.42L105.99-34.42 118.25-34.42Q118.44-34.42 118.44-34.23L118.44-34.23 118.44-33.76Q118.44-33.62 117.98-33.62L117.98-33.62Q114.49-33.62 114.49-30.18L114.49-30.18 114.49-18.9Q114.49-18.65 114.56-18.58 114.64-18.51 114.88-18.51L114.88-18.51 134.12-18.51Q134.36-18.51 134.44-18.58 134.51-18.65 134.51-18.9L134.51-18.9 134.51-30.57Q134.46-30.79 134.45-30.97 134.44-31.15 134.36-31.54L134.36-31.54Q134.19-32.37 132.63-32.9 131.07-33.42 129.09-33.57L129.09-33.57Q128.89-33.57 128.89-33.76L128.89-33.76 128.89-34.23Q128.89-34.42 129.06-34.42L129.06-34.42 143.15-34.42Q143.35-34.42 143.35-34.23L143.35-34.23 143.35-33.76Q143.35-33.62 142.88-33.62L142.88-33.62Q139.27-33.62 139.27-30.18L139.27-30.18ZM165.29-12.87L151.13-12.87Q150.72-12.87 150.72-11.08L150.72-11.08Q150.72-7.3 152.96-4.74 155.21-2.17 158.54-2.17 161.87-2.17 164.95-5.05L164.95-5.05Q165-5.1 165.07-5.1L165.07-5.1 165.19-5.1Q165.34-5.1 165.48-4.87 165.61-4.64 165.73-4.57L165.73-4.57Q162.9-1.12 159.07 0.2L159.07 0.2Q157.75 0.66 156.09 0.66 154.43 0.66 152.72-0.26 151.01-1.17 149.79-2.66L149.79-2.66Q147.2-5.76 147.2-10.39 147.2-15.01 150.02-18.82 152.84-22.63 157.77-22.63L157.77-22.63Q161.31-22.63 163.56-19.47 165.81-16.31 165.81-13.92L165.81-13.92Q165.81-12.87 165.29-12.87L165.29-12.87ZM151.4-15.5L151.4-15.21Q151.4-14.75 151.84-14.75L151.84-14.75 161.04-14.75Q161.68-14.75 161.68-15.5L161.68-15.5Q161.68-17.26 160.1-19.1 158.53-20.95 156.65-20.95L156.65-20.95Q154.82-20.95 153.32-19.29 151.82-17.63 151.4-15.5L151.4-15.5ZM184.75-17.5L184.75-17.5Q184.46-17.55 183.89-17.82L183.89-17.82Q181.87-18.75 180.72-18.75 179.57-18.75 178.32-17.32 177.06-15.89 177.06-14.75L177.06-14.75 177.06-3.71Q177.06-1.88 179.18-1.27L179.18-1.27Q180.11-1.03 180.92-0.92 181.72-0.81 181.95-0.71 182.18-0.61 182.18-0.33 182.18-0.05 181.94 0L181.94 0 169.71 0Q169.46-0.05 169.46-0.34L169.46-0.34Q169.46-0.78 170.61-0.93L170.61-0.93Q173.25-1.32 173.25-3.71L173.25-3.71 173.25-16.63Q173.25-17.65 172.13-18.04L172.13-18.04Q171.64-18.21 171.08-18.32 170.51-18.43 170.19-18.53 169.86-18.63 169.77-18.71 169.68-18.8 169.68-19.08 169.68-19.36 170.05-19.56L170.05-19.56 176.28-22.49Q176.57-22.63 176.64-22.63L176.64-22.63Q177.06-22.63 177.06-22.05L177.06-22.05 177.06-18.09Q177.06-17.8 177.2-17.8L177.2-17.8Q177.4-17.8 178.21-18.95L178.21-18.95Q180.52-22.19 182.04-22.19L182.04-22.19Q182.89-22.19 184.66-21.51 186.43-20.83 186.43-20.36L186.43-20.36Q186.43-19.8 185.87-18.65 185.31-17.5 184.75-17.5Z" fill="#6b7280" data-fill-palette-color="primary"></path></g></svg></g></svg></g><g transform="matrix(1,0,0,1,163.31020799999996,108.31174338908704)"><svg viewBox="0 0 232.20979200000002 13.16614752527757" height="13.16614752527757" width="232.20979200000002"><g transform="matrix(1,0,0,1,0,0)"><svg width="232.20979200000002" viewBox="4.170000076293945 -39.650001525878906 905.8900146484375 51.37000274658203" height="13.16614752527757" data-palette-color="#aaaaaa"><path d="M4.17 0L4.17-34.52 27.81-34.52 27.81-28.13 15.11-28.13 15.11-20.75 26.25-20.75 26.25-13.72 15.11-13.72 15.11 0 4.17 0ZM29.9 0L29.9-26.34 39.94-26.34Q39.89-25.71 39.87-24.94 39.84-24.17 39.84-23.33 39.84-22.49 39.84-21.63 39.84-20.78 39.84-20L39.84-20Q40.33-21.19 41.11-22.45 41.89-23.71 42.95-24.71 44.02-25.71 45.37-26.35 46.73-27 48.41-27L48.41-27Q48.73-27 49.11-26.97 49.48-26.93 49.85-26.86 50.22-26.78 50.55-26.67 50.88-26.56 51.1-26.42L51.1-26.42 50.24-16.36Q49.14-16.77 47.92-16.98 46.7-17.19 45.8-17.19L45.8-17.19Q44.55-17.19 43.61-16.88 42.67-16.58 42.01-16.09 41.35-15.6 40.98-15.01 40.6-14.43 40.45-13.87L40.45-13.87 40.45 0 29.9 0ZM79.95-7.98L79.95-1.05Q77.66-0.29 75 0.21 72.33 0.71 69.45 0.71L69.45 0.71Q66.3 0.71 63.45-0.12 60.59-0.95 58.42-2.71 56.25-4.47 54.96-7.17 53.68-9.86 53.68-13.6L53.68-13.6Q53.68-15.72 54.34-17.54 55-19.36 56.14-20.85 57.27-22.34 58.8-23.49 60.32-24.63 62.07-25.42 63.81-26.2 65.67-26.6 67.52-27 69.31-27L69.31-27Q72.11-27 74.26-26.38 76.41-25.76 77.84-24.71 79.27-23.66 80-22.27 80.73-20.87 80.73-19.31L80.73-19.31Q80.73-17.41 80.09-16.06 79.44-14.72 78.35-13.81 77.27-12.89 75.84-12.37 74.41-11.84 72.82-11.56 71.24-11.28 69.59-11.21 67.94-11.13 66.45-11.13L66.45-11.13Q65.94-11.13 65.46-11.15 64.99-11.16 64.52-11.16L64.52-11.16Q64.72-9.77 65.29-8.81 65.86-7.86 66.73-7.26 67.6-6.67 68.73-6.41 69.87-6.15 71.16-6.15L71.16-6.15Q72.14-6.15 73.25-6.3 74.36-6.45 75.5-6.7 76.63-6.96 77.77-7.29 78.9-7.62 79.95-7.98L79.95-7.98ZM64.3-14.92L64.3-14.92Q64.89-14.94 65.8-14.99 66.72-15.04 67.74-15.16 68.77-15.28 69.79-15.5 70.82-15.72 71.65-16.06 72.48-16.41 72.99-16.92 73.51-17.43 73.51-18.16L73.51-18.16Q73.51-19.41 72.52-20.15 71.53-20.9 69.77-20.9L69.77-20.9Q68.96-20.9 68.04-20.67 67.11-20.43 66.3-19.78 65.5-19.12 64.94-17.94 64.37-16.77 64.3-14.92ZM111.61-7.98L111.61-1.05Q109.32-0.29 106.66 0.21 104 0.71 101.12 0.71L101.12 0.71Q97.97 0.71 95.11-0.12 92.25-0.95 90.08-2.71 87.91-4.47 86.63-7.17 85.34-9.86 85.34-13.6L85.34-13.6Q85.34-15.72 86-17.54 86.66-19.36 87.8-20.85 88.93-22.34 90.46-23.49 91.98-24.63 93.73-25.42 95.48-26.2 97.33-26.6 99.19-27 100.97-27L100.97-27Q103.78-27 105.93-26.38 108.07-25.76 109.5-24.71 110.93-23.66 111.66-22.27 112.39-20.87 112.39-19.31L112.39-19.31Q112.39-17.41 111.75-16.06 111.1-14.72 110.01-13.81 108.93-12.89 107.5-12.37 106.07-11.84 104.48-11.56 102.9-11.28 101.25-11.21 99.6-11.13 98.11-11.13L98.11-11.13Q97.6-11.13 97.12-11.15 96.65-11.16 96.18-11.16L96.18-11.16Q96.38-9.77 96.95-8.81 97.53-7.86 98.39-7.26 99.26-6.67 100.4-6.41 101.53-6.15 102.82-6.15L102.82-6.15Q103.8-6.15 104.91-6.3 106.02-6.45 107.16-6.7 108.29-6.96 109.43-7.29 110.56-7.62 111.61-7.98L111.61-7.98ZM95.96-14.92L95.96-14.92Q96.55-14.94 97.47-14.99 98.38-15.04 99.41-15.16 100.43-15.28 101.46-15.5 102.48-15.72 103.31-16.06 104.14-16.41 104.66-16.92 105.17-17.43 105.17-18.16L105.17-18.16Q105.17-19.41 104.18-20.15 103.19-20.9 101.43-20.9L101.43-20.9Q100.63-20.9 99.7-20.67 98.77-20.43 97.97-19.78 97.16-19.12 96.6-17.94 96.04-16.77 95.96-14.92ZM128.99 0.71L128.99 0.71Q126.6 0.71 124.44-0.1 122.28-0.9 120.66-2.6 119.03-4.3 118.07-6.91 117.1-9.52 117.1-13.13L117.1-13.13Q117.1-16.94 118.09-19.59 119.08-22.24 120.69-23.89 122.3-25.54 124.38-26.27 126.45-27 128.65-27L128.65-27Q130.04-27 131.44-26.68 132.83-26.37 134.05-25.79 135.27-25.22 136.24-24.44 137.22-23.66 137.78-22.73L137.78-22.73 137.78-37.5 148.33-37.5 148.33 0 137.78 0 137.78-4.35Q137.12-3.15 136.17-2.21 135.22-1.27 134.06-0.62 132.9 0.02 131.61 0.37 130.31 0.71 128.99 0.71ZM127.65-13.11L127.65-13.11Q127.65-11.11 128.09-9.77 128.53-8.42 129.25-7.6 129.97-6.79 130.89-6.43 131.8-6.08 132.75-6.08L132.75-6.08Q133.71-6.08 134.61-6.43 135.51-6.79 136.22-7.6 136.93-8.42 137.36-9.78 137.78-11.13 137.78-13.13L137.78-13.13Q137.78-15.11 137.36-16.47 136.93-17.82 136.22-18.65 135.51-19.48 134.62-19.84 133.73-20.19 132.78-20.19L132.78-20.19Q131.83-20.19 130.91-19.84 129.99-19.48 129.26-18.65 128.53-17.82 128.09-16.47 127.65-15.11 127.65-13.11ZM169.32 0.71L169.32 0.71Q166.44 0.71 164.2 0.17 161.95-0.37 160.27-1.32 158.58-2.27 157.4-3.58 156.21-4.88 155.48-6.42 154.75-7.96 154.42-9.67 154.09-11.38 154.09-13.13L154.09-13.13Q154.09-14.87 154.42-16.56 154.75-18.26 155.48-19.81 156.21-21.36 157.38-22.67 158.56-23.97 160.25-24.94 161.95-25.9 164.2-26.45 166.44-27 169.32-27L169.32-27Q172.2-27 174.45-26.45 176.7-25.9 178.39-24.94 180.09-23.97 181.26-22.67 182.43-21.36 183.17-19.81 183.9-18.26 184.23-16.56 184.56-14.87 184.56-13.13L184.56-13.13Q184.56-11.38 184.23-9.67 183.9-7.96 183.17-6.42 182.43-4.88 181.25-3.58 180.07-2.27 178.38-1.32 176.7-0.37 174.45 0.17 172.2 0.71 169.32 0.71ZM164.64-13.13L164.64-13.13Q164.64-11.82 164.88-10.56 165.12-9.3 165.67-8.31 166.22-7.32 167.11-6.73 168.01-6.13 169.32-6.13L169.32-6.13Q170.64-6.13 171.53-6.73 172.42-7.32 172.97-8.31 173.52-9.3 173.77-10.56 174.01-11.82 174.01-13.13L174.01-13.13Q174.01-14.45 173.77-15.71 173.52-16.97 172.97-17.96 172.42-18.95 171.53-19.56 170.64-20.17 169.32-20.17L169.32-20.17Q168.01-20.17 167.11-19.56 166.22-18.95 165.67-17.96 165.12-16.97 164.88-15.71 164.64-14.45 164.64-13.13ZM190.27 0L190.27-26.34 200.94-26.34Q200.72-25.63 200.57-25.04 200.42-24.44 200.35-23.85 200.28-23.27 200.24-22.67 200.2-22.07 200.2-21.39L200.2-21.39Q200.86-22.49 201.91-23.51 202.96-24.54 204.27-25.31 205.58-26.07 207.05-26.54 208.53-27 210.04-27L210.04-27Q211.24-27 212.4-26.66 213.56-26.32 214.61-25.63 215.66-24.95 216.54-23.95 217.42-22.95 218.05-21.61L218.05-21.61Q218.81-22.78 220.02-23.77 221.23-24.76 222.69-25.48 224.15-26.2 225.8-26.6 227.45-27 229.09-27L229.09-27Q231.72-27 233.57-26.25 235.41-25.49 236.55-24.1 237.68-22.71 238.19-20.75 238.71-18.8 238.71-16.43L238.71-16.43 238.71 0 228.16 0 228.16-14.89Q228.16-15.6 228-16.52 227.84-17.43 227.4-18.25 226.96-19.07 226.19-19.63 225.42-20.19 224.18-20.19L224.18-20.19Q223.32-20.19 222.57-19.78 221.81-19.36 221.23-18.68 220.64-17.99 220.3-17.11 219.96-16.24 219.96-15.31L219.96-15.31 219.96 0 209.41 0 209.41-14.89Q209.41-15.89 209.23-16.85 209.04-17.8 208.6-18.54 208.16-19.29 207.41-19.74 206.65-20.19 205.5-20.19L205.5-20.19Q204.7-20.19 203.85-19.89 203.01-19.58 202.34-19.06 201.67-18.53 201.24-17.8 200.82-17.07 200.82-16.21L200.82-16.21 200.82 0 190.27 0ZM270.81 0.71L270.81 0.71Q269.17 0.71 268.08 0.24 267-0.22 266.24-0.99 265.48-1.76 265.08-2.75 264.68-3.74 264.68-4.76L264.68-4.76Q264.68-5.74 265.09-6.71 265.51-7.69 266.29-8.47 267.07-9.25 268.16-9.74 269.24-10.23 270.83-10.23L270.83-10.23Q272.47-10.23 273.61-9.74 274.76-9.25 275.58-8.47 276.4-7.69 276.84-6.73 277.27-5.76 277.27-4.79L277.27-4.79Q277.27-3.74 276.85-2.75 276.42-1.76 275.63-0.99 274.83-0.22 273.67 0.24 272.51 0.71 270.81 0.71ZM328.81-33.13L328.44-25.56Q327.44-26 326.11-26.45 324.78-26.9 323.33-27.27 321.87-27.64 320.39-27.87 318.9-28.1 317.58-28.1L317.58-28.1Q315.28-28.1 313.99-27.51 312.69-26.93 312.69-25.54L312.69-25.54Q312.69-24.88 313.15-24.38 313.6-23.88 314.43-23.45 315.26-23.02 316.42-22.62 317.58-22.22 318.99-21.78L318.99-21.78 320.78-21.22Q323.02-20.53 324.8-19.57 326.59-18.6 327.82-17.3 329.05-15.99 329.71-14.31 330.37-12.62 330.37-10.47L330.37-10.47Q330.37-7.96 329.58-5.9 328.78-3.83 327.1-2.37 325.41-0.9 322.79-0.1 320.17 0.71 316.48 0.71L316.48 0.71Q313.21 0.71 309.97 0.17 306.74-0.37 303.44-1.71L303.44-1.71 303.44-9.77Q306.59-8.15 309.56-7.41 312.52-6.67 315.4-6.67L315.4-6.67Q317.77-6.67 318.86-7.42 319.95-8.18 319.95-9.52L319.95-9.52Q319.95-10.33 319.54-10.9 319.14-11.47 318.25-11.96 317.36-12.45 315.92-12.95 314.48-13.45 312.43-14.09L312.43-14.09Q310.38-14.7 308.63-15.63 306.88-16.55 305.61-17.86 304.35-19.17 303.62-20.9 302.9-22.63 302.9-24.85L302.9-24.85Q302.9-27.15 303.71-29.05 304.52-30.96 306.18-32.31 307.84-33.67 310.39-34.42 312.94-35.18 316.45-35.18L316.45-35.18Q317.85-35.18 319.41-35.06 320.97-34.94 322.59-34.69 324.22-34.45 325.81-34.06 327.39-33.67 328.81-33.13L328.81-33.13ZM361.91-7.98L361.91-1.05Q359.62-0.29 356.95 0.21 354.29 0.71 351.41 0.71L351.41 0.71Q348.26 0.71 345.41-0.12 342.55-0.95 340.38-2.71 338.2-4.47 336.92-7.17 335.64-9.86 335.64-13.6L335.64-13.6Q335.64-15.72 336.3-17.54 336.96-19.36 338.1-20.85 339.23-22.34 340.76-23.49 342.28-24.63 344.03-25.42 345.77-26.2 347.63-26.6 349.48-27 351.27-27L351.27-27Q354.07-27 356.22-26.38 358.37-25.76 359.8-24.71 361.23-23.66 361.96-22.27 362.69-20.87 362.69-19.31L362.69-19.31Q362.69-17.41 362.05-16.06 361.4-14.72 360.31-13.81 359.23-12.89 357.8-12.37 356.37-11.84 354.78-11.56 353.2-11.28 351.55-11.21 349.9-11.13 348.41-11.13L348.41-11.13Q347.9-11.13 347.42-11.15 346.95-11.16 346.48-11.16L346.48-11.16Q346.68-9.77 347.25-8.81 347.82-7.86 348.69-7.26 349.56-6.67 350.69-6.41 351.83-6.15 353.12-6.15L353.12-6.15Q354.1-6.15 355.21-6.3 356.32-6.45 357.46-6.7 358.59-6.96 359.73-7.29 360.86-7.62 361.91-7.98L361.91-7.98ZM346.26-14.92L346.26-14.92Q346.85-14.94 347.76-14.99 348.68-15.04 349.7-15.16 350.73-15.28 351.75-15.5 352.78-15.72 353.61-16.06 354.44-16.41 354.95-16.92 355.47-17.43 355.47-18.16L355.47-18.16Q355.47-19.41 354.48-20.15 353.49-20.9 351.73-20.9L351.73-20.9Q350.92-20.9 350-20.67 349.07-20.43 348.26-19.78 347.46-19.12 346.9-17.94 346.33-16.77 346.26-14.92ZM377.85-13.13L377.85-13.13Q377.85-11.35 378.28-10.03 378.71-8.72 379.49-7.85 380.27-6.98 381.37-6.56 382.47-6.13 383.83-6.13L383.83-6.13Q385.59-6.13 387.15-6.6 388.72-7.08 390.35-7.91L390.35-7.91 391.91-1.56Q390.84-1 389.59-0.57 388.35-0.15 387.03 0.13 385.71 0.42 384.36 0.56 383 0.71 381.71 0.71L381.71 0.71Q378.75 0.71 376.14-0.12 373.53-0.95 371.56-2.66 369.6-4.37 368.45-6.98 367.3-9.59 367.3-13.16L367.3-13.16Q367.3-16.72 368.45-19.34 369.6-21.95 371.56-23.66 373.53-25.37 376.14-26.2 378.75-27.03 381.71-27.03L381.71-27.03Q383-27.03 384.36-26.88 385.71-26.73 387.03-26.45 388.35-26.17 389.59-25.74 390.84-25.32 391.91-24.76L391.91-24.76 390.35-18.41Q388.72-19.24 387.15-19.71 385.59-20.19 383.83-20.19L383.83-20.19Q382.47-20.19 381.37-19.76 380.27-19.34 379.49-18.46 378.71-17.58 378.28-16.25 377.85-14.92 377.85-13.13ZM428.19-26.34L428.19 0 417.67 0 417.89-1.68Q417.99-2.47 418.06-3.44 418.13-4.42 418.18-5.47L418.18-5.47Q417.45-4.03 416.34-2.89 415.23-1.76 413.88-0.95 412.54-0.15 411.03 0.28 409.51 0.71 407.98 0.71L407.98 0.71Q406.07 0.71 404.36 0.09 402.65-0.54 401.35-1.89 400.04-3.25 399.27-5.38 398.5-7.52 398.5-10.55L398.5-10.55 398.5-26.34 409.05-26.34 409.05-11.52Q409.05-10.01 409.33-8.98 409.61-7.96 410.1-7.32 410.59-6.69 411.22-6.41 411.86-6.13 412.57-6.13L412.57-6.13Q413.4-6.13 414.24-6.47 415.08-6.81 415.78-7.4 416.47-7.98 416.97-8.78 417.47-9.57 417.64-10.47L417.64-10.47 417.64-26.34 428.19-26.34ZM435.8 0L435.8-26.34 445.84-26.34Q445.79-25.71 445.77-24.94 445.74-24.17 445.74-23.33 445.74-22.49 445.74-21.63 445.74-20.78 445.74-20L445.74-20Q446.23-21.19 447.01-22.45 447.79-23.71 448.85-24.71 449.92-25.71 451.27-26.35 452.63-27 454.31-27L454.31-27Q454.63-27 455.01-26.97 455.38-26.93 455.75-26.86 456.12-26.78 456.45-26.67 456.78-26.56 457-26.42L457-26.42 456.14-16.36Q455.04-16.77 453.82-16.98 452.6-17.19 451.7-17.19L451.7-17.19Q450.45-17.19 449.51-16.88 448.57-16.58 447.91-16.09 447.26-15.6 446.88-15.01 446.5-14.43 446.35-13.87L446.35-13.87 446.35 0 435.8 0ZM461.58 0L461.58-26.34 472.13-26.34 472.13 0 461.58 0ZM466.88-31.76L466.88-31.76Q465.49-31.76 464.27-32.06 463.05-32.35 462.16-32.86 461.27-33.37 460.74-34.11 460.22-34.84 460.22-35.72L460.22-35.72Q460.22-36.69 460.73-37.44 461.24-38.18 462.15-38.67 463.05-39.16 464.27-39.4 465.49-39.65 466.91-39.65L466.91-39.65Q468.32-39.65 469.55-39.4 470.79-39.16 471.69-38.67 472.59-38.18 473.11-37.44 473.62-36.69 473.62-35.72L473.62-35.72Q473.62-34.84 473.09-34.11 472.57-33.37 471.67-32.86 470.76-32.35 469.53-32.06 468.3-31.76 466.88-31.76ZM493.12 0.71L493.12 0.71Q490.85 0.71 488.78 0.16 486.7-0.39 485.13-1.7 483.55-3 482.61-5.16 481.67-7.32 481.67-10.55L481.67-10.55 481.67-20.29 476.82-20.29 476.82-21.88 488.31-34.38 492.22-34.38 492.22-26.34 500.03-26.34Q499.74-24.88 499.51-23.39 499.28-21.9 499.25-20.29L499.25-20.29 492.22-20.29 492.22-10.64Q492.22-9.77 492.36-8.95 492.49-8.13 492.9-7.51 493.32-6.88 494.1-6.51 494.88-6.13 496.18-6.13L496.18-6.13Q497.01-6.13 498.01-6.29 499.01-6.45 500.28-6.88L500.28-6.88 500.86-0.56Q499.33 0 497.34 0.35 495.35 0.71 493.12 0.71ZM522.61-9.67L522.61-26.34 533.16-26.34 533.16-3.69Q533.16-0.93 532.6 1.27 532.04 3.47 531.04 5.19 530.04 6.91 528.66 8.14 527.28 9.38 525.62 10.17 523.96 10.96 522.08 11.34 520.2 11.72 518.22 11.72L518.22 11.72Q515.56 11.72 512.87 11.45 510.19 11.18 507.97 10.55L507.97 10.55 508.7 4.39Q511.36 5.03 513.15 5.2 514.95 5.37 515.8 5.37L515.8 5.37Q518.24 5.37 519.7 4.66 521.15 3.96 521.91 2.49L521.91 2.49Q522.27 1.76 522.5 1.05 522.74 0.34 522.88-0.42 523.03-1.17 523.08-1.99 523.13-2.81 523.13-3.81L523.13-3.81Q522.61-2.88 521.73-2.17 520.86-1.46 519.78-0.98 518.71-0.49 517.52-0.24 516.34 0 515.22 0L515.22 0Q513.26 0 511.51-0.6 509.75-1.2 508.39-2.48 507.04-3.76 506.24-5.76 505.45-7.76 505.45-10.55L505.45-10.55 505.45-26.34 514.83-26.34 514.83-10.84Q514.83-9.62 515.18-8.73 515.53-7.84 516.11-7.26 516.68-6.69 517.41-6.41 518.15-6.13 518.9-6.13L518.9-6.13Q519.61-6.13 520.28-6.36 520.95-6.59 521.47-7.04 521.98-7.5 522.3-8.15 522.61-8.81 522.61-9.67L522.61-9.67ZM565.89 0.71L565.89 0.71Q564.26 0.71 563.17 0.24 562.09-0.22 561.33-0.99 560.57-1.76 560.17-2.75 559.77-3.74 559.77-4.76L559.77-4.76Q559.77-5.74 560.18-6.71 560.6-7.69 561.38-8.47 562.16-9.25 563.25-9.74 564.33-10.23 565.92-10.23L565.92-10.23Q567.56-10.23 568.7-9.74 569.85-9.25 570.67-8.47 571.49-7.69 571.93-6.73 572.36-5.76 572.36-4.79L572.36-4.79Q572.36-3.74 571.94-2.75 571.51-1.76 570.72-0.99 569.92-0.22 568.76 0.24 567.6 0.71 565.89 0.71ZM596.99-17.19L596.99-17.19Q596.99-21.36 598.49-24.69 600-28.03 602.56-30.36 605.12-32.69 608.52-33.94 611.91-35.18 615.72-35.18L615.72-35.18Q618.38-35.18 621.14-34.67 623.9-34.16 626.63-32.81L626.63-32.81 625.12-25Q622.97-26.17 620.87-26.76 618.77-27.34 617.01-27.34L617.01-27.34Q614.89-27.34 613.2-26.65 611.52-25.95 610.35-24.63 609.18-23.32 608.55-21.44 607.93-19.56 607.93-17.19L607.93-17.19Q607.93-14.82 608.55-12.94 609.18-11.06 610.35-9.74 611.52-8.42 613.2-7.73 614.89-7.03 617.01-7.03L617.01-7.03Q618.77-7.03 620.87-7.62 622.97-8.2 625.12-9.38L625.12-9.38 626.63-1.56Q623.9-0.24 621.14 0.23 618.38 0.71 615.72 0.71L615.72 0.71Q611.91 0.71 608.52-0.52 605.12-1.76 602.56-4.06 600-6.37 598.49-9.69 596.99-13.01 596.99-17.19ZM646.77 0.71L646.77 0.71Q643.89 0.71 641.64 0.17 639.4-0.37 637.71-1.32 636.03-2.27 634.84-3.58 633.66-4.88 632.93-6.42 632.2-7.96 631.87-9.67 631.54-11.38 631.54-13.13L631.54-13.13Q631.54-14.87 631.87-16.56 632.2-18.26 632.93-19.81 633.66-21.36 634.83-22.67 636-23.97 637.7-24.94 639.4-25.9 641.64-26.45 643.89-27 646.77-27L646.77-27Q649.65-27 651.9-26.45 654.14-25.9 655.84-24.94 657.54-23.97 658.71-22.67 659.88-21.36 660.61-19.81 661.35-18.26 661.68-16.56 662.01-14.87 662.01-13.13L662.01-13.13Q662.01-11.38 661.68-9.67 661.35-7.96 660.61-6.42 659.88-4.88 658.7-3.58 657.51-2.27 655.83-1.32 654.14-0.37 651.9 0.17 649.65 0.71 646.77 0.71ZM642.08-13.13L642.08-13.13Q642.08-11.82 642.33-10.56 642.57-9.3 643.12-8.31 643.67-7.32 644.56-6.73 645.45-6.13 646.77-6.13L646.77-6.13Q648.09-6.13 648.98-6.73 649.87-7.32 650.42-8.31 650.97-9.3 651.21-10.56 651.46-11.82 651.46-13.13L651.46-13.13Q651.46-14.45 651.21-15.71 650.97-16.97 650.42-17.96 649.87-18.95 648.98-19.56 648.09-20.17 646.77-20.17L646.77-20.17Q645.45-20.17 644.56-19.56 643.67-18.95 643.12-17.96 642.57-16.97 642.33-15.71 642.08-14.45 642.08-13.13ZM667.76 0L667.76-26.34 678.31-26.34Q678.17-25.51 678.02-24.21 677.87-22.9 677.87-21.51L677.87-21.51Q678.7-22.75 679.96-23.77 681.22-24.78 682.73-25.5 684.24-26.22 685.94-26.61 687.64-27 689.37-27L689.37-27Q691.28-27 692.98-26.43 694.69-25.85 695.99-24.61 697.28-23.36 698.04-21.37 698.8-19.38 698.8-16.55L698.8-16.55 698.8 0 688.25 0 688.25-15.01Q688.25-16.53 687.93-17.53 687.61-18.53 687.05-19.12 686.49-19.7 685.72-19.95 684.95-20.19 684.05-20.19L684.05-20.19Q683.07-20.19 682.12-19.86 681.17-19.53 680.39-18.97 679.61-18.41 679.04-17.65 678.48-16.89 678.31-16.04L678.31-16.04 678.31 0 667.76 0ZM717.98-20.19L717.98 0 707.44 0 707.44-20.19 703.24-20.19 703.24-26.34 707.39-26.34Q707.39-29.35 708.19-31.58 709-33.81 710.49-35.3 711.98-36.79 714.09-37.54 716.2-38.28 718.84-38.28L718.84-38.28Q720.98-38.28 722.82-37.82 724.65-37.35 726.19-36.72L726.19-36.72 725.4-30.44Q723.99-30.79 723.05-31.02 722.11-31.25 721.23-31.25L721.23-31.25Q720.11-31.25 719.46-30.83 718.81-30.42 718.48-29.74 718.15-29.05 718.07-28.16 717.98-27.27 717.98-26.34L717.98-26.34 725.36-26.34Q725.01-24.73 724.82-23.24 724.62-21.75 724.62-20.19L724.62-20.19 717.98-20.19ZM729.7 0L729.7-26.34 740.25-26.34 740.25 0 729.7 0ZM735-31.76L735-31.76Q733.6-31.76 732.38-32.06 731.16-32.35 730.27-32.86 729.38-33.37 728.86-34.11 728.33-34.84 728.33-35.72L728.33-35.72Q728.33-36.69 728.84-37.44 729.36-38.18 730.26-38.67 731.16-39.16 732.38-39.4 733.6-39.65 735.02-39.65L735.02-39.65Q736.44-39.65 737.67-39.4 738.9-39.16 739.81-38.67 740.71-38.18 741.22-37.44 741.73-36.69 741.73-35.72L741.73-35.72Q741.73-34.84 741.21-34.11 740.68-33.37 739.78-32.86 738.88-32.35 737.65-32.06 736.41-31.76 735-31.76ZM758.26 0.71L758.26 0.71Q755.87 0.71 753.71-0.1 751.55-0.9 749.92-2.6 748.3-4.3 747.33-6.91 746.37-9.52 746.37-13.13L746.37-13.13Q746.37-16.94 747.36-19.59 748.35-22.24 749.96-23.89 751.57-25.54 753.65-26.27 755.72-27 757.92-27L757.92-27Q759.31-27 760.7-26.68 762.09-26.37 763.31-25.79 764.53-25.22 765.51-24.44 766.49-23.66 767.05-22.73L767.05-22.73 767.05-37.5 777.6-37.5 777.6 0 767.05 0 767.05-4.35Q766.39-3.15 765.44-2.21 764.49-1.27 763.33-0.62 762.17 0.02 760.87 0.37 759.58 0.71 758.26 0.71ZM756.92-13.11L756.92-13.11Q756.92-11.11 757.36-9.77 757.8-8.42 758.52-7.6 759.24-6.79 760.15-6.43 761.07-6.08 762.02-6.08L762.02-6.08Q762.97-6.08 763.88-6.43 764.78-6.79 765.49-7.6 766.19-8.42 766.62-9.78 767.05-11.13 767.05-13.13L767.05-13.13Q767.05-15.11 766.62-16.47 766.19-17.82 765.49-18.65 764.78-19.48 763.89-19.84 763-20.19 762.04-20.19L762.04-20.19Q761.09-20.19 760.18-19.84 759.26-19.48 758.53-18.65 757.8-17.82 757.36-16.47 756.92-15.11 756.92-13.11ZM809.62-7.98L809.62-1.05Q807.33-0.29 804.67 0.21 802.01 0.71 799.13 0.71L799.13 0.71Q795.98 0.71 793.12-0.12 790.26-0.95 788.09-2.71 785.92-4.47 784.64-7.17 783.36-9.86 783.36-13.6L783.36-13.6Q783.36-15.72 784.01-17.54 784.67-19.36 785.81-20.85 786.94-22.34 788.47-23.49 790-24.63 791.74-25.42 793.49-26.2 795.34-26.6 797.2-27 798.98-27L798.98-27Q801.79-27 803.94-26.38 806.08-25.76 807.51-24.71 808.94-23.66 809.67-22.27 810.41-20.87 810.41-19.31L810.41-19.31Q810.41-17.41 809.76-16.06 809.11-14.72 808.03-13.81 806.94-12.89 805.51-12.37 804.08-11.84 802.5-11.56 800.91-11.28 799.26-11.21 797.61-11.13 796.12-11.13L796.12-11.13Q795.61-11.13 795.14-11.15 794.66-11.16 794.2-11.16L794.2-11.16Q794.39-9.77 794.96-8.81 795.54-7.86 796.4-7.26 797.27-6.67 798.41-6.41 799.54-6.15 800.84-6.15L800.84-6.15Q801.81-6.15 802.92-6.3 804.03-6.45 805.17-6.7 806.3-6.96 807.44-7.29 808.58-7.62 809.62-7.98L809.62-7.98ZM793.98-14.92L793.98-14.92Q794.56-14.94 795.48-14.99 796.39-15.04 797.42-15.16 798.44-15.28 799.47-15.5 800.49-15.72 801.32-16.06 802.15-16.41 802.67-16.92 803.18-17.43 803.18-18.16L803.18-18.16Q803.18-19.41 802.19-20.15 801.2-20.9 799.44-20.9L799.44-20.9Q798.64-20.9 797.71-20.67 796.78-20.43 795.98-19.78 795.17-19.12 794.61-17.94 794.05-16.77 793.98-14.92ZM816.87 0L816.87-26.34 827.42-26.34Q827.27-25.51 827.13-24.21 826.98-22.9 826.98-21.51L826.98-21.51Q827.81-22.75 829.07-23.77 830.33-24.78 831.84-25.5 833.35-26.22 835.05-26.61 836.75-27 838.48-27L838.48-27Q840.38-27 842.09-26.43 843.8-25.85 845.1-24.61 846.39-23.36 847.15-21.37 847.9-19.38 847.9-16.55L847.9-16.55 847.9 0 837.36 0 837.36-15.01Q837.36-16.53 837.04-17.53 836.72-18.53 836.16-19.12 835.6-19.7 834.83-19.95 834.06-20.19 833.16-20.19L833.16-20.19Q832.18-20.19 831.23-19.86 830.28-19.53 829.5-18.97 828.71-18.41 828.15-17.65 827.59-16.89 827.42-16.04L827.42-16.04 827.42 0 816.87 0ZM863.94-13.13L863.94-13.13Q863.94-11.35 864.37-10.03 864.8-8.72 865.58-7.85 866.36-6.98 867.46-6.56 868.56-6.13 869.92-6.13L869.92-6.13Q871.68-6.13 873.24-6.6 874.81-7.08 876.44-7.91L876.44-7.91 878-1.56Q876.93-1 875.68-0.57 874.44-0.15 873.12 0.13 871.8 0.42 870.45 0.56 869.09 0.71 867.8 0.71L867.8 0.71Q864.84 0.71 862.23-0.12 859.62-0.95 857.65-2.66 855.69-4.37 854.54-6.98 853.39-9.59 853.39-13.16L853.39-13.16Q853.39-16.72 854.54-19.34 855.69-21.95 857.65-23.66 859.62-25.37 862.23-26.2 864.84-27.03 867.8-27.03L867.8-27.03Q869.09-27.03 870.45-26.88 871.8-26.73 873.12-26.45 874.44-26.17 875.68-25.74 876.93-25.32 878-24.76L878-24.76 876.44-18.41Q874.81-19.24 873.24-19.71 871.68-20.19 869.92-20.19L869.92-20.19Q868.56-20.19 867.46-19.76 866.36-19.34 865.58-18.46 864.8-17.58 864.37-16.25 863.94-14.92 863.94-13.13ZM909.28-7.98L909.28-1.05Q906.98-0.29 904.32 0.21 901.66 0.71 898.78 0.71L898.78 0.71Q895.63 0.71 892.77-0.12 889.92-0.95 887.74-2.71 885.57-4.47 884.29-7.17 883.01-9.86 883.01-13.6L883.01-13.6Q883.01-15.72 883.67-17.54 884.32-19.36 885.46-20.85 886.59-22.34 888.12-23.49 889.65-24.63 891.39-25.42 893.14-26.2 894.99-26.6 896.85-27 898.63-27L898.63-27Q901.44-27 903.59-26.38 905.74-25.76 907.16-24.71 908.59-23.66 909.32-22.27 910.06-20.87 910.06-19.31L910.06-19.31Q910.06-17.41 909.41-16.06 908.76-14.72 907.68-13.81 906.59-12.89 905.16-12.37 903.73-11.84 902.15-11.56 900.56-11.28 898.91-11.21 897.26-11.13 895.77-11.13L895.77-11.13Q895.26-11.13 894.79-11.15 894.31-11.16 893.85-11.16L893.85-11.16Q894.04-9.77 894.61-8.81 895.19-7.86 896.06-7.26 896.92-6.67 898.06-6.41 899.19-6.15 900.49-6.15L900.49-6.15Q901.46-6.15 902.57-6.3 903.68-6.45 904.82-6.7 905.96-6.96 907.09-7.29 908.23-7.62 909.28-7.98L909.28-7.98ZM893.63-14.92L893.63-14.92Q894.21-14.94 895.13-14.99 896.04-15.04 897.07-15.16 898.09-15.28 899.12-15.5 900.14-15.72 900.97-16.06 901.8-16.41 902.32-16.92 902.83-17.43 902.83-18.16L902.83-18.16Q902.83-19.41 901.84-20.15 900.85-20.9 899.09-20.9L899.09-20.9Q898.29-20.9 897.36-20.67 896.43-20.43 895.63-19.78 894.82-19.12 894.26-17.94 893.7-16.77 893.63-14.92Z" opacity="1" transform="matrix(1,0,0,1,0,0)" fill="#aaaaaa" class="slogan-text-1" data-fill-palette-color="secondary" id="text-1"></path></svg></g></svg></g></svg></g></svg></g><g transform="matrix(1,0,0,1,416.20627101595863,0)"><svg viewBox="0 0 298.41765960285 320.6554704153752" height="320.6554704153752" width="298.41765960285"><g><svg xmlns="http://www.w3.org/2000/svg" xmlns:xlink="http://www.w3.org/1999/xlink" version="1.1" x="0" y="0" viewBox="8.352999687194824 5.249000072479248 83.29400634765625 89.5009994506836" enable-background="new 0 0 100 100" xml:space="preserve" height="320.6554704153752" width="298.41765960285" class="icon-icon-0" data-fill-palette-color="accent" id="icon-0"><path d="M90.75 56.589L80.121 24.119 85.332 18.482V9.004L75.854 5.249 67.927 11.597 49.864 14.548 32.148 11.627 23.985 5.25 14.507 8.29V18.483L19.679 24.342 9.236 56.603 8.353 59.33 10.535 61.19 47.133 92.384 49.912 94.75 52.694 92.389 89.448 61.196 91.647 59.33zM49.917 86.078L13.319 57.924 26.622 16.832 49.864 16.427 73.217 16.828 86.67 57.924z" fill="#3989ce" data-fill-palette-color="accent"></path><polygon points="40.67,39.494 38.345,43.606 32.4,44.429 29.359,41.058 28.957,36.677 " fill="#3989ce" data-fill-palette-color="accent"></polygon><polygon points="58.771,39.494 61.096,43.606 67.15,44.429 70.082,41.058 70.484,36.677 " fill="#3989ce" data-fill-palette-color="accent"></polygon><g fill="#3989ce" data-fill-palette-color="accent"><polygon points="49.92,77.195 37.239,69.227 39.521,57.949 40.67,39.494 40.67,39.494 40.938,58.108 38.826,68.592 49.925,74.611    61.148,68.595 58.883,58.243 58.771,39.494 58.771,39.494 60.297,58.059 62.753,69.227  " fill="#3989ce" data-fill-palette-color="accent"></polygon></g><polygon points="53.471,61.875 55.664,67.748 49.922,70.923 44.171,67.748 46.364,61.875 " fill="#3989ce" data-fill-palette-color="accent"></polygon></svg></g></svg></g></svg></g><defs></defs></svg><rect width="395.52" height="177.47187887882242" fill="none" stroke="none" visibility="hidden"></rect></g></svg></g></g></g></g><rect width="230.88126223890345" height="60.49770010607048" x="117.25277415143597" y="161.3830725766971" rx="2.5" ry="2.5" fill="transparent" class="logo-element-hover-target"></rect><rect width="140.5036410737597" height="19.287017583224554" x="207.6349339099217" y="221.3299353377937" rx="2.5" ry="2.5" fill="transparent" class="logo-element-hover-target"></rect><rect width="177.16410329634465" height="189.47186327105092" x="347.59597340078335" y="106.2640619900457" rx="2.5" ry="2.5" fill="transparent" class="logo-element-hover-target"></rect></svg>