<?xml version="1.0" encoding="UTF-8" standalone="no"?>
<svg
   version="1.1"
   viewBox="0 0 873878.62 171460.55"
   matcher="0.4277743291222591"
   id="svg14"
   width="873878.62"
   height="171460.55"
   xmlns:xlink="http://www.w3.org/1999/xlink"
   xmlns="http://www.w3.org/2000/svg"
   xmlns:svg="http://www.w3.org/2000/svg">
  <defs
     id="defs14">
    <clipPath
       clipPathUnits="userSpaceOnUse"
       id="clipPath21">
      <g
         id="g22"
         transform="matrix(0.83243285,0,0,0.89040923,664.59406,1084.1)">
        <use
           x="0"
           y="0"
           xlink:href="#g18"
           id="use21"
           transform="matrix(1.2012981,0,0,1.1230791,-829.34266,-1263.9807)" />
      </g>
    </clipPath>
  </defs>
  <g
     viewBox="0 0 640 400"
     matcher="0.4277743291222591"
     id="g12"
     transform="translate(73107.062,588039.87)">
    <g
       matcher="0.4277743291222591"
       id="g10">
      <g
         matcher="0.4277743291222591"
         id="g9">
        <svg
           viewBox="0 0 640 400"
           data-background-color="#ffffff"
           preserveAspectRatio="xMidYMid"
           height="400"
           width="640"
           version="1.1"
           id="svg9">
          <g
             id="g25"
             transform="translate(-17.619185,-284.42399)">
            <g
               id="g23">
              <g
                 transform="matrix(0.76818181,0,0,0.76818181,434.2752,30.57791)"
                 id="g7">
                <text
                   xml:space="preserve"
                   style="font-size:451.285px;font-family:Cardo;-inkscape-font-specification:'Cardo, Normal';fill:#212121;fill-opacity:1;fill-rule:evenodd;stroke-width:0.364613;paint-order:stroke fill markers"
                   x="-627.76007"
                   y="-1371.8652"
                   id="text14"
                   transform="scale(1.1368019,0.87966074)"><tspan
                     id="tspan14"
                     style="fill:#212121;fill-opacity:1;fill-rule:evenodd;stroke-width:0.364613"
                     x="-627.76007"
                     y="-1371.8652">Shel</tspan></text>
                <text
                   xml:space="preserve"
                   style="font-size:491.609px;font-family:Cardo;-inkscape-font-specification:'Cardo, Normal';fill:#212121;fill-opacity:1;stroke-width:0.397193;paint-order:stroke fill markers"
                   x="388.85516"
                   y="-1257.5404"
                   id="text14-4"
                   transform="scale(1.0435545,0.95826332)"><tspan
                     id="tspan14-1"
                     style="fill:#212121;fill-opacity:1;stroke-width:0.397193"
                     x="388.85516"
                     y="-1257.5404">her</tspan></text>
                <g
                   id="g20"
                   transform="matrix(1.2012981,0,0,1.1230791,-374.12648,-672.50936)"
                   style="fill:#ddc6ce;fill-opacity:1"
                   clip-path="url(#clipPath21)">
                  <g
                     id="g18"
                     style="fill:#ddc6ce;fill-opacity:1"
                     transform="translate(25.778021,41.360071)">
                    <path
                       fill="#3989ce"
                       d="m 553.85724,-897.63389 a 50.590298,43.283879 0 0 1 50.59593,43.2887 50.595958,43.288723 0 1 1 -50.59593,-43.2887 m 68.09333,98.3949 c 0,0 -40.99526,2.5863 -91.27984,23.0683 -44.26722,18.041 -54.80757,52.3068 -56.90772,82.9644 -1.619,23.4702 7.30239,52.176 21.13164,88.258 0,0 -4.87391,-64.071 85.71536,-105.1173 64.0969,-29.0351 44.92956,-68.6672 41.34056,-89.1734 m 1.1944,83.5407 c 0,0 -32.9456,16.9077 -68.81223,44.3736 -29.35108,22.4629 -31.18517,32.2753 -42.77842,58.5062 -7.68734,17.3775 -16.78421,45.3761 24.04129,110.038 10.21767,16.1763 15.89541,22.1093 20.458,29.4952 5.3834,8.713 26.35646,-1.5353 23.9564,-7.1728 -1.2228,-2.8381 -7.4213,-19.741 -7.7949,-21.5184 -2.9832,-13.8371 -26.95659,-78.407 3.0455,-102.3422 55.40756,-44.1992 50.39216,-61.5476 47.88436,-111.3796"
                       data-fill-palette-color="accent"
                       id="path5"
                       style="display:inline;fill:#ddc6ce;fill-opacity:1;stroke-width:5.23608" />
                  </g>
                </g>
              </g>
            </g>
            <g
               id="g24">
              <text
                 xml:space="preserve"
                 style="font-style:normal;font-variant:normal;font-weight:300;font-stretch:normal;font-size:54.9887px;font-family:'.Geeza Pro Interface';-inkscape-font-specification:'.Geeza Pro Interface, Light';font-variant-ligatures:normal;font-variant-caps:normal;font-variant-numeric:normal;font-variant-east-asian:normal;fill:#ddc6ce;fill-opacity:1;fill-rule:evenodd;stroke-width:0.044428;paint-order:stroke fill markers"
                 x="504.97076"
                 y="-751.16541"
                 id="text22"
                 transform="scale(0.92964679,1.0756774)"><tspan
                   id="tspan22"
                   x="504.97076"
                   y="-751.16541"
                   style="font-style:normal;font-variant:normal;font-weight:300;font-stretch:normal;font-size:54.9887px;font-family:'.Geeza Pro Interface';-inkscape-font-specification:'.Geeza Pro Interface, Light';font-variant-ligatures:normal;font-variant-caps:normal;font-variant-numeric:normal;font-variant-east-asian:normal;fill:#ddc6ce;fill-opacity:1;stroke-width:0.044428">freedom . Security . confidence</tspan></text>
            </g>
          </g>
        </svg>
      </g>
    </g>
  </g>
</svg>
